<?xml version="1.0" standalone="no"?>
<!DOCTYPE svg PUBLIC "-//W3C//DTD SVG 20010904//EN"
 "http://www.w3.org/TR/2001/REC-SVG-20010904/DTD/svg10.dtd">
<svg version="1.0" xmlns="http://www.w3.org/2000/svg"
 width="320.000000pt" height="320.000000pt" viewBox="0 0 320.000000 320.000000"
 preserveAspectRatio="xMidYMid meet">
<metadata>
Created by potrace 1.14, written by Peter Selinger 2001-2017
</metadata>
<g transform="translate(0.000000,320.000000) scale(0.100000,-0.100000)"
fill="#000000" stroke="none">
<path d="M1488 3195 c-2 -2 -34 -6 -73 -10 -38 -3 -72 -8 -75 -10 -3 -2 -23
-6 -45 -9 -209 -33 -477 -158 -675 -314 -113 -89 -260 -253 -344 -385 -117
-182 -212 -447 -232 -642 -3 -27 -7 -56 -9 -62 -2 -7 -1 -13 4 -13 4 0 11 21
14 48 7 64 78 189 187 332 104 136 243 266 388 364 l52 35 35 -70 c20 -38 47
-111 61 -162 15 -50 31 -100 36 -110 5 -9 77 -50 161 -90 308 -148 498 -297
670 -527 75 -101 96 -122 140 -148 15 -9 27 -19 27 -22 -1 -9 -286 -180 -376
-224 -82 -40 -179 -74 -262 -91 -62 -13 -204 -12 -287 1 -75 12 -214 55 -240
74 -5 4 -37 21 -70 39 l-60 32 50 -46 c49 -44 122 -85 216 -119 59 -21 68 -42
68 -153 0 -48 3 -110 6 -138 10 -89 56 -258 91 -334 100 -218 443 -395 747
-386 162 5 299 33 467 95 237 87 483 261 645 455 28 33 52 62 55 65 3 3 30 43
61 90 166 255 251 531 253 825 1 140 -6 257 -18 315 -3 14 -11 50 -17 80 -64
310 -277 652 -537 861 -216 174 -490 299 -727 334 -23 3 -52 8 -65 10 -27 6
-317 15 -322 10z"/>
<path d="M868 1824 c-8 -8 0 -53 14 -82 17 -33 73 -54 125 -47 100 13 97 29
-20 84 -114 54 -112 53 -119 45z"/>
<path d="M33 1685 c0 -33 2 -45 4 -27 2 18 2 45 0 60 -2 15 -4 0 -4 -33z"/>
</g>
</svg>
